<?xml version="1.0" standalone="no"?><!DOCTYPE svg PUBLIC "-//W3C//DTD SVG 1.1//EN" "http://www.w3.org/Graphics/SVG/1.1/DTD/svg11.dtd"><svg t="1605623574088" class="icon" viewBox="0 0 1024 1024" version="1.1" xmlns="http://www.w3.org/2000/svg" p-id="1334" xmlns:xlink="http://www.w3.org/1999/xlink" width="200" height="200"><defs><style type="text/css"></style></defs><path d="M952.32 496.128c-11.264 0-20.48 9.216-20.48 20.48v342.016c0 39.936-32.768 72.704-72.704 72.704H164.864c-39.936 0-72.704-32.768-72.704-72.704V307.2c0-39.936 32.768-72.704 72.704-72.704H558.08c11.264 0 20.48-9.216 20.48-20.48s-9.216-20.48-20.48-20.48H164.864C102.4 193.024 51.2 244.224 51.2 307.2v551.936C51.2 921.6 102.4 972.8 164.864 972.8h693.76c62.976 0 113.664-51.2 113.664-113.664V517.12c0.512-11.776-8.704-20.992-19.968-20.992z" fill="#262435" p-id="1335"></path><path d="M958.464 145.408l-286.72-93.184c-10.752-3.584-22.528 2.56-26.112 13.312-3.584 10.752 2.56 22.528 13.312 26.112l234.496 76.288c-51.2 19.968-100.352 45.568-145.92 77.312-60.416 41.472-113.152 92.672-157.696 150.528-92.16 121.344-140.8 266.24-140.8 418.816 0 11.264 9.216 20.48 20.48 20.48s20.48-9.216 20.48-20.48c0-273.408 174.08-519.68 428.544-612.352L839.68 445.44c-3.584 10.752 2.56 22.528 13.312 26.112 2.048 0.512 4.096 1.024 6.144 1.024 8.704 0 16.896-5.632 19.456-14.336l89.6-275.968c3.072-4.096 5.12-9.216 4.608-14.848 1.024-9.728-4.608-18.944-14.336-22.016z" fill="#262435" p-id="1336"></path></svg>